  0
SECTION
  2
HEADER
  9
$ACADVER
  1
AC1009
  9
$INSBASE
 10
0.0
 20
0.0
 30
0.0
  9
$EXTMIN
 10
0.0
 20
0.0
 30
0.0
  9
$EXTMAX
 10
0.0
 20
0.0
 30
0.0
  0
ENDSEC
  0
SECTION
  2
TABLES
  0
TABLE
  2
VPORT
 70
1
  0
VPORT
  2
*ACTIVE
 70
0
 10
0.0
 20
0.0
 11
1.0
 21
1.0
 12
-5.0
 22
1.0
 13
0.0
 23
0.0
 14
0.1
 24
0.1
 15
0.1
 25
0.1
 16
0.0
 26
0.0
 36
1.0
 17
0.0
 27
0.0
 37
0.0
 40
10.0
 41
1.0
 42
50.0
 43
0.0
 44
0.0
 50
0.0
 51
0.0
 71
0
 72
100
 73
1
 74
1
 75
0
 76
0
 77
0
 78
0
  0
ENDTAB
  0
TABLE
  2
LTYPE
 70
8
  0
LTYPE
  2
CONTINUOUS
 70
0
  3
Solid line
 72
65
 73
0
 40
0.0
  0
LTYPE
  2
DOT
 70
0
  3
. . . . . . .
 72
65
 73
2
 40
0.25
 49
0.0
 49
-0.25
  0
LTYPE
  2
DASHED
 70
0
  3
__ __ __ __ __
 72
65
 73
2
 40
0.8
 49
0.5
 49
-0.3
  0
LTYPE
  2
DASHDOT
 70
0
  3
__ . __ . __ .
 72
65
 73
4
 40
1.0
 49
0.5
 49
-0.25
 49
0.0
 49
-0.25
  0
LTYPE
  2
DIVIDE
 70
0
  3
____ . . ____ . . 
 72
65
 73
6
 40
1.25
 49
0.5
 49
-0.25
 49
0.0
 49
-0.25
 49
0.0
 49
-0.25
  0
LTYPE
  2
BORDER
 70
0
  3
__ __ . __ __ . 
 72
65
 73
6
 40
1.75
 49
0.5
 49
-0.25
 49
0.5
 49
-0.25
 49
0.0
 49
-0.25
  0
LTYPE
  2
HIDDEN
 70
0
  3
__ __ __ __ __
 72
65
 73
2
 40
0.4
 49
0.25
 49
-0.25
  0
LTYPE
  2
CENTER
 70
0
  3
____ _ ____ _ __
 72
65
 73
4
 40
2.0
 49
1.25
 49
-0.25
 49
0.25
 49
-0.25
  0
ENDTAB
  0
TABLE
  2
LAYER
 70
1
  0
LAYER
  2
PYDXF
 70
64
 62
7
  6
continuous
  0
ENDTAB
  0
TABLE
  2
STYLE
 70
1
  0
STYLE
  2
STANDARD
 70
0
 40
0
 41
1.0
 50
0.0
 71
0
 42
1
 3
ARIAL.TTF
 4

  0
ENDTAB
  0
TABLE
  2
VIEW
 70
1
  0
VIEW
  2
BF_TOPVIEW
 70
0
 40
120.0
 10
0.0
 20
0.0
 41
200.0
 11
0.0
 21
0.0
 31
1.0
 12
0.0
 22
0.0
 32
0.0
 42
50.0
 43
0.0
 44
0.0
 50
0.0
 71
0
  0
ENDTAB
  0
ENDSEC
  0
SECTION
  2
BLOCKS
  0
ENDSEC
  0
SECTION
  2
ENTITIES
  0
LINE
  8
0
 10
61.22215270996094
 20
4.157348155975342
 30
0.0
 11
60.46446228027344
 21
3.535533905029297
 31
0.0
  0
LINE
  8
0
 10
63.02455139160156
 20
-4.903926372528076
 30
0.0
 11
64.0
 21
-5.0
 31
0.0
  0
LINE
  8
0
 10
68.61940002441406
 20
1.9134173393249512
 30
0.0
 11
68.9039306640625
 21
0.9754515886306763
 31
0.0
  0
LINE
  8
0
 10
73.23880004882812
 20
3.8268346786499023
 30
0.0
 11
73.807861328125
 21
1.9509031772613525
 31
0.0
  0
LINE
  8
0
 10
68.1573486328125
 20
2.777851104736328
 30
0.0
 11
67.53553771972656
 21
3.535533905029297
 31
0.0
  0
LINE
  8
0
 10
65.95089721679688
 20
-9.807852745056152
 30
0.0
 11
64.0
 21
-10.0
 31
0.0
  0
LINE
  8
0
 10
72.314697265625
 20
-5.555702209472656
 30
0.0
 11
73.23880004882812
 21
-3.8268346786499023
 31
0.0
  0
LINE
  8
0
 10
72.314697265625
 20
5.555702209472656
 30
0.0
 11
73.23880004882812
 21
3.8268346786499023
 31
0.0
  0
LINE
  8
0
 10
67.82684326171875
 20
-9.238795280456543
 30
0.0
 11
65.95089721679688
 21
-9.807852745056152
 31
0.0
  0
LINE
  8
0
 10
73.807861328125
 20
-1.9509031772613525
 30
0.0
 11
73.23880004882812
 21
-3.8268346786499023
 31
0.0
  0
LINE
  8
0
 10
72.314697265625
 20
5.555702209472656
 30
0.0
 11
71.07107543945312
 21
7.071067810058594
 31
0.0
  0
LINE
  8
0
 10
66.77784729003906
 20
4.157348155975342
 30
0.0
 11
67.53553771972656
 21
3.535533905029297
 31
0.0
  0
LINE
  8
0
 10
65.91342163085938
 20
-4.6193976402282715
 30
0.0
 11
66.77784729003906
 21
-4.157348155975342
 31
0.0
  0
LINE
  8
0
 10
67.82684326171875
 20
-9.238795280456543
 30
0.0
 11
69.55569458007812
 21
-8.314696311950684
 31
0.0
  0
LINE
  8
0
 10
63.02455139160156
 20
4.903926372528076
 30
0.0
 11
62.086578369140625
 21
4.6193976402282715
 31
0.0
  0
LINE
  8
0
 10
63.02455139160156
 20
4.903926372528076
 30
0.0
 11
64.0
 21
5.0
 31
0.0
  0
LINE
  8
0
 10
68.1573486328125
 20
2.777851104736328
 30
0.0
 11
68.61940002441406
 21
1.9134173393249512
 31
0.0
  0
LINE
  8
0
 10
61.22215270996094
 20
-4.157348155975342
 30
0.0
 11
60.46446228027344
 21
-3.535533905029297
 31
0.0
  0
LINE
  8
0
 10
0.0
 20
10.0
 30
0.0
 11
64.0
 21
10.0
 31
0.0
  0
LINE
  8
0
 10
65.91342163085938
 20
4.6193976402282715
 30
0.0
 11
66.77784729003906
 21
4.157348155975342
 31
0.0
  0
LINE
  8
0
 10
61.22215270996094
 20
-4.157348155975342
 30
0.0
 11
62.086578369140625
 21
-4.6193976402282715
 31
0.0
  0
LINE
  8
0
 10
-55.57545471191406
 20
-7.503926753997803
 30
0.0
 11
-54.599998474121094
 21
-7.599999904632568
 31
0.0
  0
LINE
  8
0
 10
-70.4426498413086
 20
7.17785120010376
 30
0.0
 11
-69.98059844970703
 21
6.313417434692383
 31
0.0
  0
LINE
  8
0
 10
-52.912261962890625
 20
-14.268611907958984
 30
0.0
 11
-53.90825271606445
 21
-14.55575942993164
 31
0.0
  0
LINE
  8
0
 10
-53.624549865722656
 20
-7.503926753997803
 30
0.0
 11
-52.68657684326172
 21
-7.21939754486084
 31
0.0
  0
LINE
  8
0
 10
-61.16693115234375
 20
11.686222076416016
 30
0.0
 11
-58.267364501953125
 21
10.824579238891602
 31
0.0
  0
LINE
  8
0
 10
-51.913936614990234
 20
-13.831549644470215
 30
0.0
 11
-52.912261962890625
 21
-14.268611907958984
 31
0.0
  0
LINE
  8
0
 10
-50.442649841308594
 20
-5.3778510093688965
 30
0.0
 11
-49.98059844970703
 21
-4.5134172439575195
 31
0.0
  0
LINE
  8
0
 10
-49.85989761352539
 20
-12.67636489868164
 30
0.0
 11
-48.77900314331055
 21
-12.042585372924805
 31
0.0
  0
LINE
  8
0
 10
-69.98059844970703
 20
6.313417434692383
 30
0.0
 11
-69.6960678100586
 21
5.375451564788818
 31
0.0
  0
LINE
  8
0
 10
-54.94911193847656
 20
10.228631019592285
 30
0.0
 11
-58.267364501953125
 21
10.824579238891602
 31
0.0
  0
LINE
  8
0
 10
-50.442649841308594
 20
-5.3778510093688965
 30
0.0
 11
-51.06446075439453
 21
-6.135533809661865
 31
0.0
  0
LINE
  8
0
 10
-78.13553619384766
 20
0.8644661903381348
 30
0.0
 11
-77.37785339355469
 21
0.24265193939208984
 31
0.0
  0
LINE
  8
0
 10
-82.58035278320312
 20
13.023600578308105
 30
0.0
 11
-80.77989196777344
 21
14.501198768615723
 31
0.0
  0
LINE
  8
0
 10
-86.06031799316406
 20
4.622209548950195
 30
0.0
 11
-85.83203125
 21
2.3042707443237305
 31
0.0
  0
LINE
  8
0
 10
-63.899967193603516
 20
-10.482163429260254
 30
0.0
 11
-63.06690979003906
 21
-10.824220657348633
 31
0.0
  0
LINE
  8
0
 10
-77.37785339355469
 20
0.24265193939208984
 30
0.0
 11
-76.51342010498047
 21
-0.21939754486083984
 31
0.0
  0
LINE
  8
0
 10
-59.41389465332031
 20
-13.004426002502441
 30
0.0
 11
-58.650108337402344
 21
-13.44101619720459
 31
0.0
  0
LINE
  8
0
 10
-84.05793762207031
 20
11.223139762878418
 30
0.0
 11
-82.58035278320312
 21
13.023600578308105
 31
0.0
  0
LINE
  8
0
 10
-57.830047607421875
 20
-13.846643447875977
 30
0.0
 11
-58.650108337402344
 21
-13.44101619720459
 31
0.0
  0
LINE
  8
0
 10
-57.830047607421875
 20
-13.846643447875977
 30
0.0
 11
-56.93433380126953
 21
-14.207962036132812
 31
0.0
  0
LINE
  8
0
 10
-60.85015106201172
 20
-12.091752052307129
 30
0.0
 11
-60.140785217285156
 21
-12.550222396850586
 31
0.0
  0
LINE
  8
0
 10
-85.15589904785156
 20
0.07541036605834961
 30
0.0
 11
-85.83203125
 21
2.3042707443237305
 31
0.0
  0
LINE
  8
0
 10
-84.05793762207031
 20
-1.9787206649780273
 30
0.0
 11
-85.15589904785156
 21
0.07541036605834961
 31
0.0
  0
LINE
  8
0
 10
-63.06690979003906
 20
-10.824220657348633
 30
0.0
 11
-62.29383850097656
 21
-11.21540355682373
 31
0.0
  0
LINE
  8
0
 10
-78.13553619384766
 20
7.9355340003967285
 30
0.0
 11
-77.37785339355469
 21
8.557348251342773
 31
0.0
  0
LINE
  8
0
 10
-75.57545471191406
 20
9.303926467895508
 30
0.0
 11
-74.5999984741211
 21
9.399999618530273
 31
0.0
  0
LINE
  8
0
 10
-85.15589904785156
 20
9.1690092086792
 30
0.0
 11
-84.05793762207031
 21
11.223139762878418
 31
0.0
  0
LINE
  8
0
 10
-76.51342010498047
 20
9.019397735595703
 30
0.0
 11
-77.37785339355469
 21
8.557348251342773
 31
0.0
  0
LINE
  8
0
 10
-84.05793762207031
 20
-1.9787206649780273
 30
0.0
 11
-82.58035278320312
 21
-3.779181480407715
 31
0.0
  0
LINE
  8
0
 10
-59.41389465332031
 20
-13.004426002502441
 30
0.0
 11
-60.140785217285156
 21
-12.550222396850586
 31
0.0
  0
LINE
  8
0
 10
59.8426513671875
 20
2.777851104736328
 30
0.0
 11
59.38059997558594
 21
1.9134173393249512
 31
0.0
  0
LINE
  8
0
 10
-74.5999984741211
 20
-0.5999998450279236
 30
0.0
 11
-75.57545471191406
 21
-0.5039262175559998
 31
0.0
  0
LINE
  8
0
 10
-57.37785339355469
 20
-6.75734806060791
 30
0.0
 11
-56.51342010498047
 21
-7.21939754486084
 31
0.0
  0
LINE
  8
0
 10
-74.5999984741211
 20
-0.5999998450279236
 30
0.0
 11
-73.62454986572266
 21
-0.5039262175559998
 31
0.0
  0
LINE
  8
0
 10
59.8426513671875
 20
-2.777851104736328
 30
0.0
 11
59.38059997558594
 21
-1.9134173393249512
 31
0.0
  0
LINE
  8
0
 10
-58.135536193847656
 20
-6.135533809661865
 30
0.0
 11
-57.37785339355469
 21
-6.75734806060791
 31
0.0
  0
LINE
  8
0
 10
-72.68657684326172
 20
-0.21939754486083984
 30
0.0
 11
-73.62454986572266
 21
-0.5039262175559998
 31
0.0
  0
LINE
  8
0
 10
-71.06446075439453
 20
7.9355340003967285
 30
0.0
 11
-71.82215118408203
 21
8.557348251342773
 31
0.0
  0
LINE
  8
0
 10
-58.757347106933594
 20
-5.3778510093688965
 30
0.0
 11
-58.135536193847656
 21
-6.135533809661865
 31
0.0
  0
LINE
  8
0
 10
-72.68657684326172
 20
-0.21939754486083984
 30
0.0
 11
-71.82215118408203
 21
0.24265193939208984
 31
0.0
  0
LINE
  8
0
 10
-58.757347106933594
 20
-5.3778510093688965
 30
0.0
 11
-59.219398498535156
 21
-4.5134172439575195
 31
0.0
  0
LINE
  8
0
 10
-79.5999984741211
 20
4.400000095367432
 30
0.0
 11
-79.5039291381836
 21
3.424548387527466
 31
0.0
  0
LINE
  8
0
 10
-72.68657684326172
 20
9.019397735595703
 30
0.0
 11
-71.82215118408203
 21
8.557348251342773
 31
0.0
  0
LINE
  8
0
 10
-79.21939849853516
 20
6.313417434692383
 30
0.0
 11
-78.7573471069336
 21
7.17785120010376
 31
0.0
  0
LINE
  8
0
 10
-43.80242156982422
 20
-10.116890907287598
 30
0.0
 11
-42.332061767578125
 21
-9.998678207397461
 31
0.0
  0
LINE
  8
0
 10
-65.96359252929688
 20
13.775886535644531
 30
0.0
 11
-63.711212158203125
 21
12.705883026123047
 31
0.0
  0
LINE
  8
0
 10
-72.68657684326172
 20
9.019397735595703
 30
0.0
 11
-73.62454986572266
 21
9.303926467895508
 31
0.0
  0
LINE
  8
0
 10
-74.5999984741211
 20
9.399999618530273
 30
0.0
 11
-73.62454986572266
 21
9.303926467895508
 31
0.0
  0
LINE
  8
0
 10
-69.63215637207031
 20
15.599154472351074
 30
0.0
 11
-71.86102294921875
 21
16.275272369384766
 31
0.0
  0
LINE
  8
0
 10
-74.17896270751953
 20
16.50356674194336
 30
0.0
 11
-71.86102294921875
 21
16.275272369384766
 31
0.0
  0
LINE
  8
0
 10
61.22215270996094
 20
4.157348155975342
 30
0.0
 11
62.086578369140625
 21
4.6193976402282715
 31
0.0
  0
LINE
  8
0
 10
64.0
 20
-10.0
 30
0.0
 11
0.0
 21
-10.0
 31
0.0
  0
LINE
  8
0
 10
68.1573486328125
 20
-2.777851104736328
 30
0.0
 11
68.61940002441406
 21
-1.9134173393249512
 31
0.0
  0
LINE
  8
0
 10
64.97544860839844
 20
4.903926372528076
 30
0.0
 11
65.91342163085938
 21
4.6193976402282715
 31
0.0
  0
LINE
  8
0
 10
69.55569458007812
 20
-8.314696311950684
 30
0.0
 11
71.07107543945312
 21
-7.071067810058594
 31
0.0
  0
LINE
  8
0
 10
73.807861328125
 20
-1.9509031772613525
 30
0.0
 11
74.0
 21
0.0
 31
0.0
  0
LINE
  8
0
 10
67.82684326171875
 20
9.238795280456543
 30
0.0
 11
69.55569458007812
 21
8.314696311950684
 31
0.0
  0
LINE
  8
0
 10
67.82684326171875
 20
9.238795280456543
 30
0.0
 11
65.95089721679688
 21
9.807852745056152
 31
0.0
  0
LINE
  8
0
 10
73.807861328125
 20
1.9509031772613525
 30
0.0
 11
74.0
 21
0.0
 31
0.0
  0
LINE
  8
0
 10
64.97544860839844
 20
-4.903926372528076
 30
0.0
 11
65.91342163085938
 21
-4.6193976402282715
 31
0.0
  0
LINE
  8
0
 10
72.314697265625
 20
-5.555702209472656
 30
0.0
 11
71.07107543945312
 21
-7.071067810058594
 31
0.0
  0
LINE
  8
0
 10
64.97544860839844
 20
4.903926372528076
 30
0.0
 11
64.0
 21
5.0
 31
0.0
  0
LINE
  8
0
 10
68.9039306640625
 20
-0.975451648235321
 30
0.0
 11
69.0
 21
0.0
 31
0.0
  0
LINE
  8
0
 10
68.1573486328125
 20
-2.777851104736328
 30
0.0
 11
67.53553771972656
 21
-3.535533905029297
 31
0.0
  0
LINE
  8
0
 10
68.9039306640625
 20
0.9754515886306763
 30
0.0
 11
69.0
 21
0.0
 31
0.0
  0
LINE
  8
0
 10
63.02455139160156
 20
-4.903926372528076
 30
0.0
 11
62.086578369140625
 21
-4.6193976402282715
 31
0.0
  0
LINE
  8
0
 10
64.97544860839844
 20
-4.903926372528076
 30
0.0
 11
64.0
 21
-5.0
 31
0.0
  0
LINE
  8
0
 10
68.61940002441406
 20
-1.9134173393249512
 30
0.0
 11
68.9039306640625
 21
-0.975451648235321
 31
0.0
  0
LINE
  8
0
 10
-53.624549865722656
 20
2.303926467895508
 30
0.0
 11
-54.599998474121094
 21
2.4000000953674316
 31
0.0
  0
LINE
  8
0
 10
-55.57545471191406
 20
2.303926467895508
 30
0.0
 11
-54.599998474121094
 21
2.4000000953674316
 31
0.0
  0
LINE
  8
0
 10
-52.68657684326172
 20
2.019397735595703
 30
0.0
 11
-51.82215118408203
 21
1.5573482513427734
 31
0.0
  0
LINE
  8
0
 10
-56.51342010498047
 20
2.019397735595703
 30
0.0
 11
-55.57545471191406
 21
2.303926467895508
 31
0.0
  0
LINE
  8
0
 10
-56.51342010498047
 20
2.019397735595703
 30
0.0
 11
-57.37785339355469
 21
1.5573482513427734
 31
0.0
  0
LINE
  8
0
 10
-50.442649841308594
 20
0.17785120010375977
 30
0.0
 11
-51.06446075439453
 21
0.9355340003967285
 31
0.0
  0
LINE
  8
0
 10
-58.135536193847656
 20
0.9355340003967285
 30
0.0
 11
-58.757347106933594
 21
0.17785120010375977
 31
0.0
  0
LINE
  8
0
 10
-49.98059844970703
 20
-0.6865825057029724
 30
0.0
 11
-50.442649841308594
 21
0.17785120010375977
 31
0.0
  0
LINE
  8
0
 10
-59.219398498535156
 20
-0.6865825057029724
 30
0.0
 11
-58.757347106933594
 21
0.17785120010375977
 31
0.0
  0
LINE
  8
0
 10
-49.98059844970703
 20
-0.6865825057029724
 30
0.0
 11
-49.696067810058594
 21
-1.6245484352111816
 31
0.0
  0
LINE
  8
0
 10
-49.599998474121094
 20
-2.5999999046325684
 30
0.0
 11
-49.696067810058594
 21
-1.6245484352111816
 31
0.0
  0
LINE
  8
0
 10
-59.219398498535156
 20
-0.6865825057029724
 30
0.0
 11
-59.503929138183594
 21
-1.6245484352111816
 31
0.0
  0
LINE
  8
0
 10
-69.98059844970703
 20
2.4865827560424805
 30
0.0
 11
-70.4426498413086
 21
1.6221489906311035
 31
0.0
  0
LINE
  8
0
 10
-69.98059844970703
 20
2.4865827560424805
 30
0.0
 11
-69.6960678100586
 21
3.424548387527466
 31
0.0
  0
LINE
  8
0
 10
-49.599998474121094
 20
-2.5999999046325684
 30
0.0
 11
-49.696067810058594
 21
-3.5754518508911133
 31
0.0
  0
LINE
  8
0
 10
-49.98059844970703
 20
-4.5134172439575195
 30
0.0
 11
-49.696067810058594
 21
-3.5754518508911133
 31
0.0
  0
LINE
  8
0
 10
-69.5999984741211
 20
4.400000095367432
 30
0.0
 11
-69.6960678100586
 21
3.424548387527466
 31
0.0
  0
LINE
  8
0
 10
-69.5999984741211
 20
4.400000095367432
 30
0.0
 11
-69.6960678100586
 21
5.375451564788818
 31
0.0
  0
LINE
  8
0
 10
-59.599998474121094
 20
-2.5999999046325684
 30
0.0
 11
-59.503929138183594
 21
-1.6245484352111816
 31
0.0
  0
LINE
  8
0
 10
-71.06446075439453
 20
7.9355340003967285
 30
0.0
 11
-70.4426498413086
 21
7.17785120010376
 31
0.0
  0
LINE
  8
0
 10
-51.913936614990234
 20
-13.831549644470215
 30
0.0
 11
-50.90067672729492
 21
-13.2867431640625
 31
0.0
  0
LINE
  8
0
 10
-54.599998474121094
 20
-7.599999904632568
 30
0.0
 11
-53.624549865722656
 21
-7.503926753997803
 31
0.0
  0
LINE
  8
0
 10
-49.85989761352539
 20
-12.67636489868164
 30
0.0
 11
-50.90067672729492
 21
-13.2867431640625
 31
0.0
  0
LINE
  8
0
 10
-63.711212158203125
 20
12.705883026123047
 30
0.0
 11
-61.16693115234375
 21
11.686222076416016
 31
0.0
  0
LINE
  8
0
 10
-47.64540100097656
 20
-11.42757797241211
 30
0.0
 11
-46.44649887084961
 21
-10.87351131439209
 31
0.0
  0
LINE
  8
0
 10
-54.91449737548828
 20
-14.650819778442383
 30
0.0
 11
-53.90825271606445
 21
-14.55575942993164
 31
0.0
  0
LINE
  8
0
 10
-51.82215118408203
 20
-6.75734806060791
 30
0.0
 11
-51.06446075439453
 21
-6.135533809661865
 31
0.0
  0
LINE
  8
0
 10
-47.64540100097656
 20
-11.42757797241211
 30
0.0
 11
-48.77900314331055
 21
-12.042585372924805
 31
0.0
  0
LINE
  8
0
 10
-52.68657684326172
 20
-7.21939754486084
 30
0.0
 11
-51.82215118408203
 21
-6.75734806060791
 31
0.0
  0
LINE
  8
0
 10
-74.17896270751953
 20
16.50356674194336
 30
0.0
 11
-76.49690246582031
 21
16.275272369384766
 31
0.0
  0
LINE
  8
0
 10
-85.15589904785156
 20
9.1690092086792
 30
0.0
 11
-85.83203125
 21
6.94014835357666
 31
0.0
  0
LINE
  8
0
 10
-80.77989196777344
 20
-5.256781578063965
 30
0.0
 11
-78.72576904296875
 21
-6.354736328125
 31
0.0
  0
LINE
  8
0
 10
-78.72576904296875
 20
-6.354736328125
 30
0.0
 11
-76.49690246582031
 21
-7.03085470199585
 31
0.0
  0
LINE
  8
0
 10
-80.77989196777344
 20
-5.256781578063965
 30
0.0
 11
-82.58035278320312
 21
-3.779181480407715
 31
0.0
  0
LINE
  8
0
 10
-62.29383850097656
 20
-11.21540355682373
 30
0.0
 11
-61.561378479003906
 21
-11.642362594604492
 31
0.0
  0
LINE
  8
0
 10
-56.93433380126953
 20
-14.207962036132812
 30
0.0
 11
-55.9435920715332
 21
-14.511622428894043
 31
0.0
  0
LINE
  8
0
 10
-54.91449737548828
 20
-14.650819778442383
 30
0.0
 11
-55.9435920715332
 21
-14.511622428894043
 31
0.0
  0
LINE
  8
0
 10
-78.72576904296875
 20
15.599154472351074
 30
0.0
 11
-80.77989196777344
 21
14.501198768615723
 31
0.0
  0
LINE
  8
0
 10
-55.57545471191406
 20
-7.503926753997803
 30
0.0
 11
-56.51342010498047
 21
-7.21939754486084
 31
0.0
  0
LINE
  8
0
 10
-76.51342010498047
 20
-0.21939754486083984
 30
0.0
 11
-75.57545471191406
 21
-0.5039262175559998
 31
0.0
  0
LINE
  8
0
 10
-76.49690246582031
 20
-7.03085470199585
 30
0.0
 11
-65.82288360595703
 21
-10.0
 31
0.0
  0
LINE
  8
0
 10
-60.85015106201172
 20
-12.091752052307129
 30
0.0
 11
-61.561378479003906
 21
-11.642362594604492
 31
0.0
  0
LINE
  8
0
 10
-64.81239318847656
 20
-10.202577590942383
 30
0.0
 11
-65.82288360595703
 21
-10.0
 31
0.0
  0
LINE
  8
0
 10
-78.13553619384766
 20
0.8644661903381348
 30
0.0
 11
-78.7573471069336
 21
1.6221489906311035
 31
0.0
  0
LINE
  8
0
 10
-86.06031799316406
 20
4.622209548950195
 30
0.0
 11
-85.83203125
 21
6.94014835357666
 31
0.0
  0
LINE
  8
0
 10
-78.72576904296875
 20
15.599154472351074
 30
0.0
 11
-76.49690246582031
 21
16.275272369384766
 31
0.0
  0
LINE
  8
0
 10
-76.51342010498047
 20
9.019397735595703
 30
0.0
 11
-75.57545471191406
 21
9.303926467895508
 31
0.0
  0
LINE
  8
0
 10
-63.899967193603516
 20
-10.482163429260254
 30
0.0
 11
-64.81239318847656
 21
-10.202577590942383
 31
0.0
  0
LINE
  8
0
 10
-78.13553619384766
 20
7.9355340003967285
 30
0.0
 11
-78.7573471069336
 21
7.17785120010376
 31
0.0
  0
LINE
  8
0
 10
-79.5999984741211
 20
4.400000095367432
 30
0.0
 11
-79.5039291381836
 21
5.375451564788818
 31
0.0
  0
LINE
  8
0
 10
-67.98746490478516
 20
14.788558006286621
 30
0.0
 11
-65.96359252929688
 21
13.775886535644531
 31
0.0
  0
LINE
  8
0
 10
-79.5039291381836
 20
5.375451564788818
 30
0.0
 11
-79.21939849853516
 21
6.313417434692383
 31
0.0
  0
LINE
  8
0
 10
-79.5039291381836
 20
3.424548387527466
 30
0.0
 11
-79.21939849853516
 21
2.4865827560424805
 31
0.0
  0
LINE
  8
0
 10
-67.98746490478516
 20
14.788558006286621
 30
0.0
 11
-69.63215637207031
 21
15.599154472351074
 31
0.0
  0
LINE
  8
0
 10
-54.94911193847656
 20
10.228631019592285
 30
0.0
 11
-51.148780822753906
 21
10.006058692932129
 31
0.0
  0
LINE
  8
0
 10
-43.80242156982422
 20
-10.116890907287598
 30
0.0
 11
-45.169700622558594
 21
-10.422558784484863
 31
0.0
  0
LINE
  8
0
 10
59.8426513671875
 20
-2.777851104736328
 30
0.0
 11
60.46446228027344
 21
-3.535533905029297
 31
0.0
  0
LINE
  8
0
 10
-71.06446075439453
 20
0.8644661903381348
 30
0.0
 11
-71.82215118408203
 21
0.24265193939208984
 31
0.0
  0
LINE
  8
0
 10
-59.503929138183594
 20
-3.5754518508911133
 30
0.0
 11
-59.219398498535156
 21
-4.5134172439575195
 31
0.0
  0
LINE
  8
0
 10
60.46446228027344
 20
3.535533905029297
 30
0.0
 11
59.8426513671875
 21
2.777851104736328
 31
0.0
  0
LINE
  8
0
 10
-71.06446075439453
 20
0.8644661903381348
 30
0.0
 11
-70.4426498413086
 21
1.6221489906311035
 31
0.0
  0
LINE
  8
0
 10
-59.599998474121094
 20
-2.5999999046325684
 30
0.0
 11
-59.503929138183594
 21
-3.5754518508911133
 31
0.0
  0
LINE
  8
0
 10
59.0960693359375
 20
-0.975451648235321
 30
0.0
 11
59.0
 21
0.0
 31
0.0
  0
LINE
  8
0
 10
59.0960693359375
 20
0.9754515886306763
 30
0.0
 11
59.0
 21
0.0
 31
0.0
  0
LINE
  8
0
 10
59.38059997558594
 20
-1.9134173393249512
 30
0.0
 11
59.0960693359375
 21
-0.975451648235321
 31
0.0
  0
LINE
  8
0
 10
59.38059997558594
 20
1.9134173393249512
 30
0.0
 11
59.0960693359375
 21
0.9754515886306763
 31
0.0
  0
LINE
  8
0
 10
-53.624549865722656
 20
2.303926467895508
 30
0.0
 11
-52.68657684326172
 21
2.019397735595703
 31
0.0
  0
LINE
  8
0
 10
-45.169700622558594
 20
-10.422558784484863
 30
0.0
 11
-46.44649887084961
 21
-10.87351131439209
 31
0.0
  0
LINE
  8
0
 10
-51.06446075439453
 20
0.9355340003967285
 30
0.0
 11
-51.82215118408203
 21
1.5573482513427734
 31
0.0
  0
LINE
  8
0
 10
-78.7573471069336
 20
1.6221489906311035
 30
0.0
 11
-79.21939849853516
 21
2.4865827560424805
 31
0.0
  0
LINE
  8
0
 10
67.53553771972656
 20
-3.535533905029297
 30
0.0
 11
66.77784729003906
 21
-4.157348155975342
 31
0.0
  0
LINE
  8
0
 10
-42.332061767578125
 20
-9.998678207397461
 30
0.0
 11
0.0
 21
-10.0
 31
0.0
  0
LINE
  8
0
 10
-57.37785339355469
 20
1.5573482513427734
 30
0.0
 11
-58.135536193847656
 21
0.9355340003967285
 31
0.0
  0
LINE
  8
0
 10
69.55569458007812
 20
8.314696311950684
 30
0.0
 11
71.07107543945312
 21
7.071067810058594
 31
0.0
  0
LINE
  8
0
 10
65.95089721679688
 20
9.807852745056152
 30
0.0
 11
64.0
 21
10.0
 31
0.0
  0
LINE
  8
0
 10
-51.148780822753906
 20
10.006058692932129
 30
0.0
 11
0.0
 21
10.0
 31
0.0
  0
ENDSEC
  0
EOF
